<?xml version="1.0" encoding="UTF-8" standalone="no"?>
<svg
   viewBox="0 0 640 640"
   version="1.1"
   id="svg1"
   sodipodi:docname="app-icon.svg"
   inkscape:version="1.3.2 (091e20e, 2023-11-25, custom)"
   xmlns:inkscape="http://www.inkscape.org/namespaces/inkscape"
   xmlns:sodipodi="http://sodipodi.sourceforge.net/DTD/sodipodi-0.dtd"
   xmlns:xlink="http://www.w3.org/1999/xlink"
   xmlns="http://www.w3.org/2000/svg"
   xmlns:svg="http://www.w3.org/2000/svg">
  <defs
     id="defs1">
    <linearGradient
       id="linearGradient1"
       inkscape:collect="always">
      <stop
         style="stop-color:#8961cc;stop-opacity:1;"
         offset="0.64999998"
         id="stop1" />
      <stop
         style="stop-color:#262738;stop-opacity:1;"
         offset="0.64999998"
         id="stop2" />
    </linearGradient>
    <linearGradient
       inkscape:collect="always"
       xlink:href="#linearGradient1"
       id="linearGradient2"
       x1="64"
       y1="336"
       x2="576"
       y2="336"
       gradientUnits="userSpaceOnUse" />
  </defs>
  <sodipodi:namedview
     id="namedview1"
     pagecolor="#ffffff"
     bordercolor="#000000"
     borderopacity="0.25"
     inkscape:showpageshadow="2"
     inkscape:pageopacity="0.0"
     inkscape:pagecheckerboard="0"
     inkscape:deskcolor="#d1d1d1"
     inkscape:zoom="1.25"
     inkscape:cx="319.6"
     inkscape:cy="320"
     inkscape:window-width="1707"
     inkscape:window-height="996"
     inkscape:window-x="-8"
     inkscape:window-y="1432"
     inkscape:window-maximized="1"
     inkscape:current-layer="svg1" />
  <rect
     style="fill:#ffffff;stroke-width:50;fill-opacity:1"
     id="rect2"
     width="512"
     height="320"
     x="64"
     y="160" />
  <!--!Font Awesome Free 7.1.0 by @fontawesome - https://fontawesome.com License - https://fontawesome.com/license/free Copyright 2026 Fonticons, Inc.-->
  <path
     d="M128 96C92.7 96 64 124.7 64 160L64 480C64 515.3 92.7 544 128 544C128 561.7 142.3 576 160 576C177.7 576 192 561.7 192 544L448 544C448 561.7 462.3 576 480 576C497.7 576 512 561.7 512 544C547.3 544 576 515.3 576 480L576 160C576 124.7 547.3 96 512 96L128 96zM320 320C320 284.7 291.3 256 256 256C220.7 256 192 284.7 192 320C192 355.3 220.7 384 256 384C291.3 384 320 355.3 320 320zM128 320C128 249.3 185.3 192 256 192C326.7 192 384 249.3 384 320C384 390.7 326.7 448 256 448C185.3 448 128 390.7 128 320zM512 272C512 289.8 502.3 305.3 488 313.6L488 392C488 405.3 477.3 416 464 416C450.7 416 440 405.3 440 392L440 313.6C425.7 305.3 416 289.8 416 272C416 245.5 437.5 224 464 224C490.5 224 512 245.5 512 272z"
     id="path1"
     style="fill:url(#linearGradient2);fill-opacity:1" />
</svg>
